Bad Boys 1995 BluRay 1080p DTS x264-LoNeWoLf

Encoded by Tequila-Bob a.k.a. bobnjeff a.k.a.LoNeWoLf

Source - NTSC BluRay Disc.

Movie has been tested and is DXVA Compliant





Bad Boys (1995) 
  118 min  -  Action | Comedy | Crime   -  7 April 1995 (USA) 
  6.6/10 X  Users: 6.6/10 (55,917 votes) 175 reviews | Critics: 62 reviews 
  Two hip detectives protect a murder witness while investigating a case of stolen heroin. 

Director: Michael Bay
Writers: George Gallo (story), Michael Barrie (screenplay), and 2 more credits » 
Stars:Will Smith, Martin Lawrence, Lisa Boyle
 
http://www.imdb.com/title/tt0112442/

Genres:Action , Comedy , Crime , Drama , Thriller

Rated R for intense violent action and pervasive strong language

Release Date:7 April 1995 (USA)

Cast
Cast overview, first billed only: 
  Lisa Boyle  ...  Girl Decoy  
  Michael Taliferro  ...  Carjacker  
  Emmanuel Xuereb  ...  Eddie Dominguez  
  Tchéky Karyo  ...  Fouchet (as Tcheky Karyo)  
  Marc Macaulay  ...  Noah Trafficante  
  Ralph Gonzalez  ...  Kuni  
  Vic Manni  ...  Ferguson  
  Frank John Hughes  ...  Casper  
  Mike Kirton  ...  Andy  
  Martin Lawrence  ...  Marcus Burnett  
  Will Smith  ...  Mike Lowery  
  Will Knickerbocker  ...  Officer Bill O'Fee  
  Theresa Randle  ...  Theresa Burnett  
  Tiffany Samuels  ...  Megan Burnett  
  Cory Hodges  ...  James Burnett  


[img]http://torrent-stats.info/b8d7/cd5a542f.png[/img]

See the full size 1920x1040 PNG files at the link below
 
http://s1015.photobucket.com/albums/af279/tequila-bob/Bad%20Boys%201995/


Format : Matroska 
File size : 8.98 GiB 
Duration : 1h 58mn 
Overall bit rate : 10.8 Mbps 
Encoded date : UTC 2011-01-02 06:52:49 
Writing application : mkvmerge v4.4.0 ('Die Wiederkehr') built on Oct 31 2010 21:52:48 
Writing library : libebml v1.0.0 + libmatroska v1.0.0 

Video 
ID : 1 
Format : AVC 
Format/Info : Advanced Video Codec 
Format profile : High@L4.1 
Format settings, CABAC : Yes 
Format settings, ReFrames : 3 frames 
Muxing mode : Container profile=Unknown@4.1 
Codec ID : V_MPEG4/ISO/AVC 
Duration : 1h 58mn 
Bit rate : 9 199 Kbps 
Width : 1 920 pixels 
Height : 1 040 pixels 
Display aspect ratio : 16:9 
Frame rate : 23.976 fps 
Color space : YUV 
Chroma subsampling : 4:2:0 
Bit depth : 8 bits 
Scan type : Progressive 
Bits/(Pixel*Frame) : 0.192 
Stream size : 7.55 GiB (84%) 
Writing library : x264 core 98 r1649 c54c47d 
Encoding settings : cabac=1 / ref=3 / deblock=1:-3:-3 / analyse=0x3:0x113 / me=umh / subme=9 / psy=1 / psy_rd=1.00:0.15 / mixed_ref=1 / me_range=32 / chroma_me=1 / trellis=2 / 8x8dct=1 / cqm=0 / deadzone=21,11 / fast_pskip=0 / chroma_qp_offset=-3 / threads=6 / sliced_threads=0 / nr=0 / decimate=1 / interlaced=0 / constrained_intra=0 / bframes=3 / b_pyramid=1 / b_adapt=2 / b_bias=0 / direct=1 / weightb=1 / weightp=2 / keyint=250 / keyint_min=25 / scenecut=40 / intra_refresh=0 / rc_lookahead=60 / rc=2pass / mbtree=1 / bitrate=9199 / ratetol=1.0 / qcomp=0.60 / qpmin=10 / qpmax=51 / qpstep=4 / cplxblur=20.0 / qblur=0.5 / vbv_maxrate=50000 / vbv_bufsize=50000 / ip_ratio=1.40 / aq=1:1.50 / nal_hrd=none 
Language : English 

Audio 
ID : 2 
Format : DTS 
Format/Info : Digital Theater Systems 
Codec ID : A_DTS 
Duration : 1h 58mn 
Bit rate mode : Constant 
Bit rate : 1 510 Kbps 
Channel(s) : 6 channels 
Channel positions : Front: L C R, Side: L R, LFE 
Sampling rate : 48.0 KHz 
Bit depth : 24 bits 
Video delay : 10ms 
Stream size : 1.25 GiB (14%) 
Title : 3/2+1 
Language : English 

Text 
ID : 3 
Format : PGS 
Codec ID : S_HDMV/PGS 
Codec ID/Info : The same subtitle format used on BDs/HD-DVDs 
Language : English , Portuguese ,French ,Spanish

Menu & 15 Chapters

See the full size 1920x1040 PNG files at the link below
 
http://s1015.photobucket.com/albums/af279/tequila-bob/Bad%20Boys%201995/



